name analog
datacolumns 19
datarows 58
range 0.34900000000000003 0.3775
endheader
time	ground_force_vx	ground_force_vy	ground_force_vz	ground_force_px	ground_force_py	ground_force_pz	l_ground_force_vx	l_ground_force_vy	l_ground_force_vz	l_ground_force_px	l_ground_force_py	l_ground_force_pz	ground_torque_x	ground_torque_y	ground_torque_z	l_ground_torque_x	l_ground_torque_y	l_ground_torque_z
0.34900000000000003	-0.0	-0.0	-0.0	-0.0	-0.0	-0.0	5.250154972076416	-0.971538543701172	-636.2684326171875	-0.0	-0.0	-0.0	-0.0	-0.0	-0.0	175682.09375	-20887.779296875	987.2485961914062
0.34950000000000003	-0.0	-0.0	-0.0	-0.0	-0.0	-0.0	4.92277717590332	-1.721604347229004	-633.9967651367188	-0.0	-0.0	-0.0	-0.0	-0.0	-0.0	175161.46875	-20314.26171875	1185.205322265625
0.35000000000000003	-0.0	-0.0	-0.0	-0.0	-0.0	-0.0	4.5681657791137695	-2.532180070877075	-631.6728515625	-0.0	-0.0	-0.0	-0.0	-0.0	-0.0	174346.421875	-20025.18359375	1070.5111083984375
0.35050000000000003	-0.0	-0.0	-0.0	-0.0	-0.0	-0.0	3.636641979217529	-2.516918897628784	-627.3675537109375	-0.0	-0.0	-0.0	-0.0	-0.0	-0.0	173550.3125	-19291.802734375	872.203857421875
0.35100000000000003	-0.0	-0.0	-0.0	-0.0	-0.0	-0.0	2.4247350692749023	-2.517207622528076	-626.4943237304688	-0.0	-0.0	-0.0	-0.0	-0.0	-0.0	173329.671875	-19107.255859375	722.927734375
0.35150000000000003	-0.0	-0.0	-0.0	-0.0	-0.0	-0.0	2.025498867034912	-1.972645163536072	-627.2501220703125	-0.0	-0.0	-0.0	-0.0	-0.0	-0.0	173729.234375	-18683.33984375	455.7024536132813
0.352	-0.0	-0.0	-0.0	-0.0	-0.0	-0.0	1.493171453475952	-1.9579236507415767	-628.6489868164062	-0.0	-0.0	-0.0	-0.0	-0.0	-0.0	174268.671875	-18460.380859375	475.1893005371094
0.3525	-0.0	-0.0	-0.0	-0.0	-0.0	-0.0	1.3168668746948242	-1.899507761001587	-629.5203857421875	-0.0	-0.0	-0.0	-0.0	-0.0	-0.0	175079.796875	-18198.056640625	317.13543701171875
0.353	-0.0	-0.0	-0.0	-0.0	-0.0	-0.0	1.153240203857422	-1.5314550399780271	-629.638916015625	-0.0	-0.0	-0.0	-0.0	-0.0	-0.0	175587.5625	-17809.69140625	390.5494384765625
0.3535	-0.0	-0.0	-0.0	-0.0	-0.0	-0.0	0.5494111180305481	-1.0598602294921875	-629.75048828125	-0.0	-0.0	-0.0	-0.0	-0.0	-0.0	176067.109375	-17687.044921875	-63.5865478515625
0.354	-0.0	-0.0	-0.0	-0.0	-0.0	-0.0	-0.8567084074020386	-0.5147970914840698	-629.2908935546875	-0.0	-0.0	-0.0	-0.0	-0.0	-0.0	176236.328125	-16981.83203125	-627.935791015625
0.3545	-0.0	-0.0	-0.0	-0.0	-0.0	-0.0	-2.2025070190429688	0.0854701101779937	-629.9295654296875	-0.0	-0.0	-0.0	-0.0	-0.0	-0.0	176643.046875	-17044.404296875	-1039.7862548828125
0.355	-0.0	-0.0	-0.0	-0.0	-0.0	-0.0	-2.413808822631836	0.6793133020401001	-629.050537109375	-0.0	-0.0	-0.0	-0.0	-0.0	-0.0	177356.171875	-16805.578125	-1273.0692138671875
0.3555	-0.0	-0.0	-0.0	-0.0	-0.0	-0.0	-1.1569887399673462	1.205819010734558	-631.828369140625	-0.0	-0.0	-0.0	-0.0	-0.0	-0.0	178066.46875	-17216.1484375	-1379.267822265625
0.356	-0.0	-0.0	-0.0	-0.0	-0.0	-0.0	-0.0773650705814361	1.9276719093322756	-630.0968627929688	-0.0	-0.0	-0.0	-0.0	-0.0	-0.0	179155.921875	-17584.0546875	-1264.771240234375
0.3565	-0.0	-0.0	-0.0	-0.0	-0.0	-0.0	1.41937255859375	3.236949920654297	-633.1775512695312	-0.0	-0.0	-0.0	-0.0	-0.0	-0.0	180012.890625	-18160.515625	-854.7508544921875
0.357	-0.0	-0.0	-0.0	-0.0	-0.0	-0.0	3.444100141525269	5.340967178344727	-636.7910766601562	-0.0	-0.0	-0.0	-0.0	-0.0	-0.0	181297.0	-18396.46875	-437.6070556640625
0.3575	-0.0	-0.0	-0.0	-0.0	-0.0	-0.0	4.879093170166016	6.826633930206299	-639.6862182617188	-0.0	-0.0	-0.0	-0.0	-0.0	-0.0	182478.84375	-18812.453125	-204.24612426757807
0.358	-0.0	-0.0	-0.0	-0.0	-0.0	-0.0	5.54734992980957	7.08142614364624	-641.3685302734375	-0.0	-0.0	-0.0	-0.0	-0.0	-0.0	183436.765625	-18939.201171875	-4.796330451965332
0.3585	-0.0	-0.0	-0.0	-0.0	-0.0	-0.0	5.984842777252197	6.718691349029541	-641.4915161132812	-0.0	-0.0	-0.0	-0.0	-0.0	-0.0	183558.1875	-18977.171875	-42.77814865112305
0.359	-0.0	-0.0	-0.0	-0.0	-0.0	-0.0	5.64570426940918	6.920738220214844	-644.5703125	-0.0	-0.0	-0.0	-0.0	-0.0	-0.0	184168.96875	-18937.134765625	65.1011734008789
0.3595	-0.0	-0.0	-0.0	-0.0	-0.0	-0.0	5.186025619506836	7.403121471405029	-643.3887329101562	-0.0	-0.0	-0.0	-0.0	-0.0	-0.0	184596.546875	-18661.724609375	-2.734139442443848
0.36	-0.0	-0.0	-0.0	-0.0	-0.0	-0.0	4.330794811248779	7.885098934173584	-644.2520141601562	-0.0	-0.0	-0.0	-0.0	-0.0	-0.0	184540.125	-18359.88671875	-151.4555206298828
0.3605	-0.0	-0.0	-0.0	-0.0	-0.0	-0.0	3.58064079284668	8.190000534057617	-643.1373291015625	-0.0	-0.0	-0.0	-0.0	-0.0	-0.0	184546.453125	-17656.11328125	-95.13581848144533
0.361	-0.0	-0.0	-0.0	-0.0	-0.0	-0.0	2.419179677963257	7.876739501953125	-641.0423583984375	-0.0	-0.0	-0.0	-0.0	-0.0	-0.0	183806.3125	-17440.4453125	-392.7326049804688
0.3615	-0.0	-0.0	-0.0	-0.0	-0.0	-0.0	1.6292810440063477	7.258550643920898	-639.7391357421875	-0.0	-0.0	-0.0	-0.0	-0.0	-0.0	183419.515625	-16791.876953125	-509.22369384765625
0.362	-0.0	-0.0	-0.0	-0.0	-0.0	-0.0	1.2653790712356567	6.882015228271484	-638.156982421875	-0.0	-0.0	-0.0	-0.0	-0.0	-0.0	182857.359375	-16474.072265625	-525.8472290039062
0.3625	-0.0	-0.0	-0.0	-0.0	-0.0	-0.0	1.3538119792938232	6.633714199066162	-638.8184814453125	-0.0	-0.0	-0.0	-0.0	-0.0	-0.0	182876.796875	-16141.521484375	-261.1083984375
0.363	-0.0	-0.0	-0.0	-0.0	-0.0	-0.0	1.4129265546798706	6.215279579162598	-639.5809936523438	-0.0	-0.0	-0.0	-0.0	-0.0	-0.0	182834.421875	-15672.8037109375	-158.8955535888672
0.3635	-0.0	-0.0	-0.0	-0.0	-0.0	-0.0	0.4374942481517792	6.547871112823486	-641.8057861328125	-0.0	-0.0	-0.0	-0.0	-0.0	-0.0	183357.984375	-15617.9306640625	-253.94696044921875
0.364	-0.0	-0.0	-0.0	-0.0	-0.0	-0.0	-0.6764997243881226	5.90675163269043	-643.421142578125	-0.0	-0.0	-0.0	-0.0	-0.0	-0.0	183526.640625	-14787.830078125	-468.0568237304688
0.3645	-0.0	-0.0	-0.0	-0.0	-0.0	-0.0	-1.6634526252746582	6.094196319580078	-643.3341064453125	-0.0	-0.0	-0.0	-0.0	-0.0	-0.0	183677.0625	-14718.7822265625	-754.1826782226562
0.365	-0.0	-0.0	-0.0	-0.0	-0.0	-0.0	-2.560880422592163	6.480817317962647	-645.4034423828125	-0.0	-0.0	-0.0	-0.0	-0.0	-0.0	183772.84375	-14269.37109375	-878.9005737304688
0.3655	-0.0	-0.0	-0.0	-0.0	-0.0	-0.0	-3.286991596221924	6.788712024688721	-644.883056640625	-0.0	-0.0	-0.0	-0.0	-0.0	-0.0	183355.875	-13859.8701171875	-853.6823120117188
0.366	-0.0	-0.0	-0.0	-0.0	-0.0	-0.0	-3.2273499965667725	6.695641040802002	-646.6951904296875	-0.0	-0.0	-0.0	-0.0	-0.0	-0.0	183765.203125	-13789.9453125	-907.4502563476562
0.3665	-0.0	-0.0	-0.0	-0.0	-0.0	-0.0	-2.01941466331482	5.496786117553711	-646.9779052734375	-0.0	-0.0	-0.0	-0.0	-0.0	-0.0	183457.625	-14138.740234375	-615.9849853515625
0.367	-0.0	-0.0	-0.0	-0.0	-0.0	-0.0	-2.395191192626953	4.327762603759766	-648.738037109375	-0.0	-0.0	-0.0	-0.0	-0.0	-0.0	183541.78125	-14199.9326171875	-617.8597412109375
0.3675	-0.0	-0.0	-0.0	-0.0	-0.0	-0.0	-2.412282705307007	3.5498838424682617	-646.7633056640625	-0.0	-0.0	-0.0	-0.0	-0.0	-0.0	183169.375	-13930.4453125	-618.0435180664062
0.368	-0.0	-0.0	-0.0	-0.0	-0.0	-0.0	-2.091811418533325	2.883382797241211	-648.5886840820312	-0.0	-0.0	-0.0	-0.0	-0.0	-0.0	183156.578125	-13874.6591796875	-498.32513427734375
0.3685	-0.0	-0.0	-0.0	-0.0	-0.0	-0.0	-2.3607397079467773	2.6179211139678955	-647.472900390625	-0.0	-0.0	-0.0	-0.0	-0.0	-0.0	183304.359375	-13974.29296875	-719.5746459960938
0.369	-0.0	-0.0	-0.0	-0.0	-0.0	-0.0	-2.180963516235352	2.0335922241210938	-646.4158325195312	-0.0	-0.0	-0.0	-0.0	-0.0	-0.0	183069.90625	-14210.0498046875	-534.9872436523438
0.3695	-0.0	-0.0	-0.0	-0.0	-0.0	-0.0	-0.9218361377716064	1.749145746231079	-649.7711181640625	-0.0	-0.0	-0.0	-0.0	-0.0	-0.0	182981.78125	-14207.6865234375	-421.3143310546875
0.37	-0.0	-0.0	-0.0	-0.0	-0.0	-0.0	0.3374017477035522	0.7760331034660339	-649.27880859375	-0.0	-0.0	-0.0	-0.0	-0.0	-0.0	183181.390625	-14441.515625	-231.04302978515625
0.3705	-0.0	-0.0	-0.0	-0.0	-0.0	-0.0	1.650496482849121	-0.1069336533546447	-650.8921508789062	-0.0	-0.0	-0.0	-0.0	-0.0	-0.0	183838.4375	-14402.8095703125	-159.6757049560547
0.371	-0.0	-0.0	-0.0	-0.0	-0.0	-0.0	1.6319427490234375	0.0174972414970397	-652.076904296875	-0.0	-0.0	-0.0	-0.0	-0.0	-0.0	184110.0625	-14450.181640625	72.24653625488281
0.3715	-0.0	-0.0	-0.0	-0.0	-0.0	-0.0	1.0645294189453125	0.2820883393287658	-653.9609375	-0.0	-0.0	-0.0	-0.0	-0.0	-0.0	184703.390625	-14434.1357421875	-260.0936584472656
0.372	-0.0	-0.0	-0.0	-0.0	-0.0	-0.0	0.4789959788322449	0.4239651262760162	-655.9163818359375	-0.0	-0.0	-0.0	-0.0	-0.0	-0.0	184670.5625	-14338.27734375	-569.164794921875
0.3725	-0.0	-0.0	-0.0	-0.0	-0.0	-0.0	0.5322647094726562	0.6888649463653564	-655.9158935546875	-0.0	-0.0	-0.0	-0.0	-0.0	-0.0	184893.5625	-14393.5322265625	-628.3389282226562
0.373	-0.0	-0.0	-0.0	-0.0	-0.0	-0.0	0.5495320558547974	0.9709476232528688	-656.5432739257812	-0.0	-0.0	-0.0	-0.0	-0.0	-0.0	184891.328125	-14194.8154296875	-651.77294921875
0.3735	-0.0	-0.0	-0.0	-0.0	-0.0	-0.0	0.7276099324226379	0.2649650573730469	-656.055908203125	-0.0	-0.0	-0.0	-0.0	-0.0	-0.0	184929.875	-14115.25	-658.0176391601562
0.374	-0.0	-0.0	-0.0	-0.0	-0.0	-0.0	0.7276872396469116	-0.3891307115554809	-654.5833129882812	-0.0	-0.0	-0.0	-0.0	-0.0	-0.0	184331.4375	-14057.498046875	-841.7803955078125
0.3745	-0.0	-0.0	-0.0	-0.0	-0.0	-0.0	0.4616173803806305	-0.706573486328125	-651.9308471679688	-0.0	-0.0	-0.0	-0.0	-0.0	-0.0	183581.71875	-13387.755859375	-818.9010620117188
0.375	-0.0	-0.0	-0.0	-0.0	-0.0	-0.0	0.1411543041467666	-0.6182518005371094	-649.4297485351562	-0.0	-0.0	-0.0	-0.0	-0.0	-0.0	182994.46875	-13566.494140625	-956.0242309570312
0.3755	-0.0	-0.0	-0.0	-0.0	-0.0	-0.0	-0.1092653572559356	-0.3012270927429199	-648.1687622070312	-0.0	-0.0	-0.0	-0.0	-0.0	-0.0	182117.9375	-12907.8125	-1174.536865234375
0.376	-0.0	-0.0	-0.0	-0.0	-0.0	-0.0	-0.7827823162078857	-0.6182518005371094	-646.8445434570312	-0.0	-0.0	-0.0	-0.0	-0.0	-0.0	181422.03125	-12907.8203125	-1240.49267578125
0.3765	-0.0	-0.0	-0.0	-0.0	-0.0	-0.0	-1.1869149208068848	-0.6700437068939209	-645.2202758789062	-0.0	-0.0	-0.0	-0.0	-0.0	-0.0	180777.40625	-12511.1123046875	-1281.6942138671875
0.377	-0.0	-0.0	-0.0	-0.0	-0.0	-0.0	-1.2938196659088137	-0.7031937837600708	-640.3441162109375	-0.0	-0.0	-0.0	-0.0	-0.0	-0.0	180063.484375	-12428.0029296875	-1199.97998046875
0.3775	-0.0	-0.0	-0.0	-0.0	-0.0	-0.0	-0.5840070843696594	-0.5152209997177124	-640.1986083984375	-0.0	-0.0	-0.0	-0.0	-0.0	-0.0	179007.9375	-12064.041015625	-1282.2808837890625
